# xmcd
#
# Track frame offsets:
#	150
#	22794
#	38222
#	57142
#
# Disc length: 1013 seconds
#
# Revision: 2
# Processed by: cddbd v1.5.1PL0 Copyright (c) Steve Scherf et al.
# Submitted via: EasyCDDAExtractor 8.2.3.1
#
DISCID=2403f304
DTITLE=Celine Dion - The Reason
DYEAR=1900
DGENRE=Blues
TTITLE0=The reason (album version)
TTITLE1=Cherche Encore
TTITLE2=Lovin Proof
TTITLE3=The christmas song
EXTD=
EXTT0=
EXTT1=
EXTT2=
EXTT3=Chestnuts roasting on an open fire\n
PLAYORDER=
